<svg xmlns="http://www.w3.org/2000/svg" width="2660" height="500" fill="none">
  <path fill="#fff" d="M466.507 125v250L250 500 33.4941 375V125L250 0zM81.4941 152.713v194.573L250 444.574l168.507-97.288V152.713L250 55.4248z"/>
  <path fill="#fff" fill-rule="evenodd" d="M269.463 385 122 281.746l86.384-33.697 126.397 88.503zm-38.427-270 147.463 103.254-86.384 33.697-126.397-88.503z" clip-rule="evenodd"/>
  <path fill="#fff" fill-rule="evenodd" d="M269.463 385 122 281.746l86.384-33.697 126.397 88.503zm-38.427-270 147.463 103.254-86.384 33.697-126.397-88.503z" clip-rule="evenodd"/>
  <path fill="#fff" d="M2627.27 180.5c-39.34-5.333-67.84-8-85.5-8-17.67 0-30 2.167-37 6.5-6.67 4-10 10.5-10 19.5s3.66 15.333 11 19c7.66 3.667 25.33 8 53 13 28 4.667 47.83 12.167 59.5 22.5 11.66 10.333 17.5 28.667 17.5 55s-8.5 45.667-25.5 58c-16.67 12.333-41.17 18.5-73.5 18.5-20.34 0-46-2.833-77-8.5l-15.5-2.5 2-45.5c40 5.333 68.83 8 86.5 8 17.66 0 30.16-2.167 37.5-6.5 7.66-4.333 11.5-11.5 11.5-21.5s-3.67-16.833-11-20.5c-7-4-24.17-8.167-51.5-12.5-27-4.667-46.84-11.833-59.5-21.5-12.67-9.667-19-27.333-19-53s8.66-44.833 26-57.5c17.66-12.667 40.16-19 67.5-19 21.33 0 47.5 2.667 78.5 8l15.5 3zM2389.57 413c0 54.667-39.5 82-118.5 82-38 0-66.17-5.167-84.5-15.5s-27.5-29.167-27.5-56.5c0-12.333 3-23 9-32 6-8.667 15.67-18.167 29-28.5-11-7.333-16.5-19.5-16.5-36.5 0-6.667 4.5-17.5 13.5-32.5l4.5-7.5q-36-21.4995-36-75 0-45 27-66c18-14 42.33-21 73-21 14.67 0 29.17 1.667 43.5 5l7.5 1.5 77.5-2v44l-41.5-2.5c9 11.667 13.5 25.333 13.5 41 0 32.667-8.33 55.333-25 68-16.33 12.333-42 18.5-77 18.5-8.67 0-16-.667-22-2-4.67 11.333-7 20.167-7 26.5 0 6 3 10.167 9 12.5 6.33 2.333 21.33 3.667 45 4 39.67.333 66.83 5.667 81.5 16s22 29.833 22 58.5m-177 5c0 11.667 4.67 20 14 25q13.995 7.5 48 7.5c40.33 0 60.5-11.5 60.5-34.5 0-13-3.67-21.333-11-25-7-3.333-21.17-5.167-42.5-5.5l-49-3c-7.33 6-12.5 11.5-15.5 16.5-3 5.333-4.5 11.667-4.5 19m4-207c0 15.333 3.67 26.667 11 34 7.33 7 19.17 10.5 35.5 10.5s28-3.5 35-10.5c7.33-7.333 11-18.667 11-34s-3.67-26.5-11-33.5c-7.33-7.333-19.17-11-35.5-11-30.67 0-46 14.833-46 44.5M2082.65 206v114c.34 7.333 2.17 12.833 5.5 16.5 3.67 3.333 9.17 5.5 16.5 6.5l-1.5 41.5c-28.66 0-50.83-6.167-66.5-18.5-26.66 12.333-53.5 18.5-80.5 18.5-49.66 0-74.5-26.5-74.5-79.5 0-25.333 6.67-43.667 20-55 13.67-11.333 34.5-18.167 62.5-20.5l64.5-5.5v-18c0-13.333-3-22.667-9-28-5.66-5.333-14.16-8-25.5-8-21.33 0-48 1.333-80 4l-16 1-2-38.5c36.34-8.667 69.67-13 100-13 30.67 0 52.67 6.667 66 20 13.67 13 20.5 33.833 20.5 62.5m-112 62q-34.5 3-34.5 37.5c0 23 10.17 34.5 30.5 34.5 16.67 0 34.34-2.667 53-8l9-3v-66.5zM1832.95 175.5h-69v110q0 30.4995 4.5 40.5c3 6.667 10.67 10 23 10l41-1.5 2.5 43.5c-22.33 4.333-39.33 6.5-51 6.5q-42.495 0-58.5-19.5c-10.33-13-15.5-37.5-15.5-73.5v-116h-32V129h32V56.5h54V129h69zM1426.82 156c17.33-21.667 46-32.5 86-32.5s68.5 10.833 85.5 32.5c17.33 21.667 26 54.167 26 97.5s-8.34 76-25 98c-16.67 22-45.5 33-86.5 33s-69.84-11-86.5-33c-16.67-22-25-54.667-25-98q0-64.9995 25.5-97.5m41 162.5c7.66 13.333 22.66 20 45 20 22.33 0 37.33-6.667 45-20 7.66-13.333 11.5-35.167 11.5-65.5s-4.17-51.833-12.5-64.5c-8-12.667-22.67-19-44-19-21.34 0-36.17 6.333-44.5 19q-12 19.0005-12 64.5c0 30.333 3.83 52.167 11.5 65.5M1174.87 379h-54.5V129h54v15.5q36.495-21 69-21c33.33 0 56 9.5 68 28.5 12.33 18.667 18.5 49.667 18.5 93v134h-54V246.5c0-27-3-46.167-9-57.5-5.67-11.333-17.5-17-35.5-17-17 0-33.34 3.333-49 10l-7.5 3zM1031.95 206v114c.33 7.333 2.17 12.833 5.5 16.5 3.67 3.333 9.17 5.5 16.5 6.5l-1.5 41.5c-28.67 0-50.83-6.167-66.501-18.5-26.666 12.333-53.5 18.5-80.5 18.5-49.666 0-74.5-26.5-74.5-79.5 0-25.333 6.667-43.667 20-55 13.667-11.333 34.5-18.167 62.5-20.5l64.5-5.5v-18c0-13.333-3-22.667-9-28-5.666-5.333-14.166-8-25.5-8-21.333 0-48 1.333-80 4l-16 1-2-38.5c36.334-8.667 69.667-13 100-13 30.667 0 52.667 6.667 66.001 20 13.67 13 20.5 33.833 20.5 62.5m-112.001 62q-34.5 3-34.5 37.5c0 23 10.167 34.5 30.5 34.5 16.667 0 34.334-2.667 53-8l9-3v-66.5zM608.5 379H554V129h54v15.5q36.4995-21 69-21c33.333 0 56 9.5 68 28.5 12.333 18.667 18.5 49.667 18.5 93v134h-54V246.5c0-27-3-46.167-9-57.5-5.667-11.333-17.5-17-35.5-17-17 0-33.333 3.333-49 10l-7.5 3z"/>
</svg>
